<?xml version="1.0" encoding="UTF-8"?> <!-- Generator: Adobe Illustrator 21.0.2, SVG Export Plug-In . SVG Version: 6.00 Build 0) --> <svg xmlns="http://www.w3.org/2000/svg" xmlns:xlink="http://www.w3.org/1999/xlink" x="0px" y="0px" viewBox="0 0 555 298" style="enable-background:new 0 0 555 298;" xml:space="preserve"> <style type="text/css"> .st0{fill:#FFFFFF;} .st1{fill:#33CC33;} </style> <g id="Layer_2"> </g> <g id="Layer_3"> <rect class="st0" width="555" height="294"></rect> <g> <g> <path class="st1" d="M244.7,101.4c-24.8,0-27,44.8-27,44.8h52.7C270.4,146.3,269.6,101.4,244.7,101.4z"></path> <path class="st1" d="M245,183.6v-7.7c23.1-0.6,28.1-22.6,28.1-22.6h-58.7c0,0,5.6,21.6,28.1,22.6v7c-17.5-4.7-25.1-6-26.3-5.3 c-1,0.6,11.3,3.2,27.8,8.3c16.5,5.2,28.7,12.5,30.3,10.2C276,193.8,262.7,188.5,245,183.6z"></path> </g> <g> <path d="M54.4,167.2v-3.1c-1.7,1.4-3.4,2.4-5.1,3c-1.7,0.7-3.4,1-5.3,1c-3.2,0-5.8-1-7.7-2.9c-2-1.9-2.9-4.4-2.9-7.5 c0-3.2,1.1-5.8,3.2-7.7c2.1-2,4.9-2.9,8.4-2.9c1.2,0,2.6,0.2,4.1,0.6c1.5,0.4,3.3,1,5.2,1.7v-1.9c0-3-0.6-5.1-1.7-6.5 s-2.8-2.1-5.2-2.1c-1.7,0-3.1,0.3-4.4,1c-1.3,0.7-2.4,1.7-3.5,3.2l-5.7-1.5c1-2.5,2.8-4.5,5.2-5.8c2.4-1.4,5.4-2.1,8.8-2.1 c4.3,0,7.5,1,9.4,3.1c1.9,2.1,2.9,5.6,2.9,10.4v14.1H65v5.7H54.4z M54.4,158.1v-2.4c-1.8-1.1-3.4-1.8-4.6-2.3 c-1.3-0.4-2.5-0.7-3.7-0.7c-1.9,0-3.4,0.4-4.6,1.3c-1.2,0.9-1.7,2-1.7,3.5c0,1.3,0.5,2.4,1.5,3.2c1,0.9,2.3,1.3,3.8,1.3 c1.3,0,2.7-0.3,4.2-1C50.8,160.5,52.5,159.5,54.4,158.1z"></path> <path d="M93.1,146.8c-0.6-2.4-1.7-4.2-3.1-5.4c-1.5-1.2-3.3-1.9-5.5-1.9c-3.1,0-5.6,1-7.4,3c-1.8,2-2.7,4.8-2.7,8.4 c0,3.5,0.9,6.2,2.7,8.2c1.8,2,4.2,3,7.3,3c2.2,0,4.2-0.6,6-1.7c1.8-1.1,3.2-2.7,4.3-4.8l5.1,2.5c-1.3,3.1-3.3,5.6-6,7.3 c-2.8,1.8-5.9,2.7-9.4,2.7c-4.9,0-8.9-1.6-12-4.7c-3.1-3.1-4.6-7.3-4.6-12.4c0-5,1.5-9.1,4.4-12.3c3-3.2,6.7-4.8,11.3-4.8 c1.9,0,3.6,0.3,5.1,0.9c1.6,0.6,3,1.5,4.5,2.8v-2.9h5.2v12.1H93.1z"></path> <path d="M134.1,151c0,5.1-1.5,9.3-4.5,12.4c-3,3.2-7,4.7-11.8,4.7c-4.8,0-8.8-1.6-11.8-4.7c-3-3.1-4.5-7.3-4.5-12.4 s1.5-9.3,4.5-12.4c3-3.1,6.9-4.7,11.8-4.7c4.9,0,8.8,1.6,11.8,4.7C132.6,141.7,134.1,145.9,134.1,151z M117.8,162.1 c3.1,0,5.5-1,7.2-3c1.7-2,2.6-4.7,2.6-8.2s-0.9-6.3-2.6-8.2c-1.7-2-4.1-3-7.2-3c-3,0-5.4,1-7.2,3c-1.7,2-2.6,4.7-2.6,8.2 c0,3.5,0.9,6.2,2.6,8.2C112.4,161.1,114.8,162.1,117.8,162.1z"></path> <path d="M142.2,161.5V140h-4.6v-5.4h10.2v6.4c1.1-2.5,2.5-4.3,4.1-5.4c1.6-1.1,3.7-1.6,6.3-1.6c0.4,0,0.8,0,1.2,0 c0.4,0,0.8,0,1.3,0v6.3c0,0-0.1,0-0.2,0c-1-0.1-1.7-0.1-2.2-0.1c-3.5,0-6.1,1-7.7,3c-1.6,2-2.4,5.2-2.4,9.6v8.6h5.8v5.7h-16.3 v-5.7H142.2z"></path> <path d="M168.2,161.5V140h-4.6v-5.4h10.2v5c2.2-1.8,4.2-3,5.9-3.8c1.8-0.8,3.6-1.2,5.3-1.2c2.8,0,4.9,0.8,6,2.4 c1.2,1.6,1.8,4.7,1.8,9.3v15.2h4.8v5.7H187v-18.5c0-3.9-0.3-6.3-0.9-7.3c-0.6-1-1.7-1.5-3.2-1.5c-1.4,0-2.8,0.4-4.3,1.2 c-1.4,0.8-2.9,2.1-4.6,3.8v16.6h4.8v5.7h-15.3v-5.7H168.2z"></path> <path d="M290.6,152.7c0.1,2.8,1.1,5.1,2.9,6.9s4.3,2.6,7.3,2.6c2.1,0,4.1-0.5,5.9-1.5c1.8-1,3.3-2.4,4.4-4.2l5.1,2.7 c-1.7,3-3.8,5.2-6.5,6.8c-2.6,1.5-5.7,2.3-9.1,2.3c-5.1,0-9.1-1.6-12.2-4.7c-3-3.1-4.5-7.3-4.5-12.5c0-5.1,1.5-9.3,4.5-12.4 c3-3.1,6.9-4.7,11.8-4.7c5,0,8.9,1.6,11.7,4.9c2.8,3.3,4.2,7.9,4.2,13.9H290.6z M291.2,147.8h18.5c-0.3-2.8-1.3-4.9-2.9-6.4 c-1.6-1.5-3.7-2.2-6.4-2.2c-2.7,0-4.8,0.8-6.4,2.3C292.3,143,291.4,145.1,291.2,147.8z"></path> <path d="M323.2,126.3h-4.7v-5.4H329v40.6h4.8v5.7h-15.3v-5.7h4.7V126.3z"></path> <path d="M342.6,152.7c0.1,2.8,1.1,5.1,2.9,6.9s4.3,2.6,7.3,2.6c2.1,0,4.1-0.5,5.9-1.5c1.8-1,3.3-2.4,4.4-4.2l5.1,2.7 c-1.7,3-3.8,5.2-6.5,6.8c-2.6,1.5-5.7,2.3-9.1,2.3c-5.1,0-9.1-1.6-12.2-4.7c-3-3.1-4.5-7.3-4.5-12.5c0-5.1,1.5-9.3,4.5-12.4 c3-3.1,6.9-4.7,11.8-4.7c5,0,8.9,1.6,11.7,4.9c2.8,3.3,4.2,7.9,4.2,13.9H342.6z M343.2,147.8h18.5c-0.3-2.8-1.3-4.9-2.9-6.4 c-1.6-1.5-3.7-2.2-6.4-2.2c-2.7,0-4.8,0.8-6.4,2.3C344.3,143,343.4,145.1,343.2,147.8z"></path> <path d="M397,146.8c-0.6-2.4-1.7-4.2-3.1-5.4c-1.5-1.2-3.3-1.9-5.5-1.9c-3.1,0-5.6,1-7.4,3c-1.8,2-2.7,4.8-2.7,8.4 c0,3.5,0.9,6.2,2.7,8.2c1.8,2,4.2,3,7.3,3c2.2,0,4.2-0.6,6-1.7c1.8-1.1,3.2-2.7,4.3-4.8l5.1,2.5c-1.3,3.1-3.3,5.6-6,7.3 c-2.8,1.8-5.9,2.7-9.4,2.7c-4.9,0-8.9-1.6-12-4.7c-3.1-3.1-4.6-7.3-4.6-12.4c0-5,1.5-9.1,4.4-12.3c3-3.2,6.7-4.8,11.3-4.8 c1.9,0,3.6,0.3,5.1,0.9c1.6,0.6,3,1.5,4.5,2.8v-2.9h5.2v12.1H397z"></path> <path d="M415.2,158.2c0,1.6,0.2,2.7,0.6,3.2c0.4,0.6,1.1,0.9,2,0.9c0.5,0,1-0.1,1.5-0.2c0.5-0.1,1.2-0.4,1.9-0.7v5.7 c-0.8,0.3-1.7,0.6-2.5,0.8c-0.9,0.2-1.7,0.3-2.6,0.3c-2.5,0-4.3-0.6-5.3-1.8c-1-1.2-1.5-3.6-1.5-7.2V140h-4.3v-5.4h4.3v-4.4 l5.9-4.9v9.2h6.1v5.4h-6.1V158.2z"></path> <path d="M431.3,161.5V140h-4.6v-5.4h10.2v6.4c1.1-2.5,2.5-4.3,4.1-5.4c1.6-1.1,3.7-1.6,6.3-1.6c0.4,0,0.8,0,1.2,0 c0.4,0,0.8,0,1.3,0v6.3c0,0-0.1,0-0.2,0c-1-0.1-1.7-0.1-2.2-0.1c-3.5,0-6.1,1-7.7,3c-1.6,2-2.4,5.2-2.4,9.6v8.6h5.8v5.7h-16.3 v-5.7H431.3z"></path> <path d="M484.2,151c0,5.1-1.5,9.3-4.5,12.4c-3,3.2-7,4.7-11.8,4.7c-4.8,0-8.8-1.6-11.8-4.7c-3-3.1-4.5-7.3-4.5-12.4 s1.5-9.3,4.5-12.4c3-3.1,6.9-4.7,11.8-4.7c4.9,0,8.8,1.6,11.8,4.7C482.7,141.7,484.2,145.9,484.2,151z M467.8,162.1 c3.1,0,5.5-1,7.2-3c1.7-2,2.6-4.7,2.6-8.2s-0.9-6.3-2.6-8.2c-1.7-2-4.1-3-7.2-3c-3,0-5.4,1-7.2,3c-1.7,2-2.6,4.7-2.6,8.2 c0,3.5,0.9,6.2,2.6,8.2C462.4,161.1,464.8,162.1,467.8,162.1z"></path> <path d="M492.2,161.5V140h-4.6v-5.4h10.2v5c2.2-1.8,4.2-3,5.9-3.8c1.8-0.8,3.6-1.2,5.3-1.2c2.8,0,4.9,0.8,6,2.4 c1.2,1.6,1.8,4.7,1.8,9.3v15.2h4.8v5.7H511v-18.5c0-3.9-0.3-6.3-0.9-7.3c-0.6-1-1.7-1.5-3.2-1.5c-1.4,0-2.8,0.4-4.3,1.2 c-1.4,0.8-2.9,2.1-4.6,3.8v16.6h4.8v5.7h-15.3v-5.7H492.2z"></path> </g> </g> </g> </svg> 