<?xml version="1.0" encoding="UTF-8"?> <!-- Generator: Adobe Illustrator 21.0.2, SVG Export Plug-In . SVG Version: 6.00 Build 0) --> <svg xmlns="http://www.w3.org/2000/svg" xmlns:xlink="http://www.w3.org/1999/xlink" x="0px" y="0px" viewBox="0 0 493 99.5" style="enable-background:new 0 0 493 99.5;" xml:space="preserve"> <style type="text/css"> .st0{fill:#33CC33;} </style> <g id="Layer_2"> </g> <g id="Layer_3"> <g> <g> <path class="st0" d="M213.5,2.2c-24.8,0-27,44.8-27,44.8h52.7C239.2,47,238.3,2.2,213.5,2.2z"></path> <path class="st0" d="M213.7,84.3v-7.7c23.1-0.6,28.1-22.6,28.1-22.6h-58.7c0,0,5.6,21.6,28.1,22.6v7c-17.5-4.7-25.1-6-26.3-5.3 c-1,0.6,11.3,3.2,27.8,8.3c16.5,5.2,28.7,12.5,30.3,10.2C244.8,94.6,231.4,89.2,213.7,84.3z"></path> </g> <g> <path d="M23.1,67.9v-3.1c-1.7,1.4-3.4,2.4-5.1,3c-1.7,0.7-3.4,1-5.3,1c-3.2,0-5.8-1-7.7-2.9c-2-1.9-2.9-4.4-2.9-7.5 c0-3.2,1.1-5.8,3.2-7.7s4.9-2.9,8.4-2.9c1.2,0,2.6,0.2,4.1,0.6c1.5,0.4,3.3,1,5.2,1.7v-1.9c0-3-0.6-5.1-1.7-6.5s-2.8-2.1-5.2-2.1 c-1.7,0-3.1,0.3-4.4,1c-1.3,0.7-2.4,1.7-3.5,3.2l-5.7-1.5c1-2.5,2.8-4.5,5.2-5.8c2.4-1.4,5.4-2.1,8.8-2.1c4.3,0,7.5,1,9.4,3.1 c1.9,2.1,2.9,5.6,2.9,10.4v14.1h4.9v5.7H23.1z M23.1,58.8v-2.4c-1.8-1.1-3.4-1.8-4.6-2.3c-1.3-0.4-2.5-0.7-3.7-0.7 c-1.9,0-3.4,0.4-4.6,1.3c-1.2,0.9-1.7,2-1.7,3.5c0,1.3,0.5,2.4,1.5,3.2c1,0.9,2.3,1.3,3.8,1.3c1.3,0,2.7-0.3,4.2-1 C19.6,61.2,21.3,60.2,23.1,58.8z"></path> <path d="M61.9,47.5c-0.6-2.4-1.7-4.2-3.1-5.4c-1.5-1.2-3.3-1.9-5.5-1.9c-3.1,0-5.6,1-7.4,3c-1.8,2-2.7,4.8-2.7,8.4 c0,3.5,0.9,6.2,2.7,8.2c1.8,2,4.2,3,7.3,3c2.2,0,4.2-0.6,6-1.7c1.8-1.1,3.2-2.7,4.3-4.8l5.1,2.5c-1.3,3.1-3.3,5.6-6,7.3 c-2.8,1.8-5.9,2.7-9.4,2.7c-4.9,0-8.9-1.6-12-4.7c-3.1-3.1-4.6-7.3-4.6-12.4c0-5,1.5-9.1,4.4-12.3c3-3.2,6.7-4.8,11.3-4.8 c1.9,0,3.6,0.3,5.1,0.9c1.6,0.6,3,1.5,4.5,2.8v-2.9h5.2v12.1H61.9z"></path> <path d="M102.9,51.7c0,5.1-1.5,9.3-4.5,12.4c-3,3.2-7,4.7-11.8,4.7c-4.8,0-8.8-1.6-11.8-4.7c-3-3.1-4.5-7.3-4.5-12.4 s1.5-9.3,4.5-12.4c3-3.1,6.9-4.7,11.8-4.7c4.9,0,8.8,1.6,11.8,4.7C101.4,42.4,102.9,46.6,102.9,51.7z M86.5,62.8 c3.1,0,5.5-1,7.2-3c1.7-2,2.6-4.7,2.6-8.2s-0.9-6.3-2.6-8.2c-1.7-2-4.1-3-7.2-3c-3,0-5.4,1-7.2,3c-1.7,2-2.6,4.7-2.6,8.2 c0,3.5,0.9,6.2,2.6,8.2C81.1,61.8,83.5,62.8,86.5,62.8z"></path> <path d="M110.9,62.2V40.7h-4.6v-5.4h10.2v6.4c1.1-2.5,2.5-4.3,4.1-5.4c1.6-1.1,3.7-1.6,6.3-1.6c0.4,0,0.8,0,1.2,0 c0.4,0,0.8,0,1.3,0v6.3c0,0-0.1,0-0.2,0c-1-0.1-1.7-0.1-2.2-0.1c-3.5,0-6.1,1-7.7,3c-1.6,2-2.4,5.2-2.4,9.6v8.6h5.8v5.7h-16.3 v-5.7H110.9z"></path> <path d="M136.9,62.2V40.7h-4.6v-5.4h10.2v5c2.2-1.8,4.2-3,5.9-3.8c1.8-0.8,3.6-1.2,5.3-1.2c2.8,0,4.9,0.8,6,2.4 c1.2,1.6,1.8,4.7,1.8,9.3v15.2h4.8v5.7h-10.7V49.4c0-3.9-0.3-6.3-0.9-7.3c-0.6-1-1.7-1.5-3.2-1.5c-1.4,0-2.8,0.4-4.3,1.2 c-1.4,0.8-2.9,2.1-4.6,3.8v16.6h4.8v5.7h-15.3v-5.7H136.9z"></path> <path d="M259.4,53.4c0.1,2.8,1.1,5.1,2.9,6.9s4.3,2.6,7.3,2.6c2.1,0,4.1-0.5,5.9-1.5c1.8-1,3.3-2.4,4.4-4.2l5.1,2.7 c-1.7,3-3.8,5.2-6.5,6.8c-2.6,1.5-5.7,2.3-9.1,2.3c-5.1,0-9.1-1.6-12.2-4.7c-3-3.1-4.5-7.3-4.5-12.5c0-5.1,1.5-9.3,4.5-12.4 c3-3.1,6.9-4.7,11.8-4.7c5,0,8.9,1.6,11.7,4.9c2.8,3.3,4.2,7.9,4.2,13.9H259.4z M259.9,48.6h18.5c-0.3-2.8-1.3-4.9-2.9-6.4 c-1.6-1.5-3.7-2.2-6.4-2.2c-2.7,0-4.8,0.8-6.4,2.3C261.1,43.7,260.1,45.8,259.9,48.6z"></path> <path d="M291.9,27h-4.7v-5.4h10.5v40.6h4.8v5.7h-15.3v-5.7h4.7V27z"></path> <path d="M311.4,53.4c0.1,2.8,1.1,5.1,2.9,6.9s4.3,2.6,7.3,2.6c2.1,0,4.1-0.5,5.9-1.5c1.8-1,3.3-2.4,4.4-4.2l5.1,2.7 c-1.7,3-3.8,5.2-6.5,6.8c-2.6,1.5-5.7,2.3-9.1,2.3c-5.1,0-9.1-1.6-12.2-4.7c-3-3.1-4.5-7.3-4.5-12.5c0-5.1,1.5-9.3,4.5-12.4 c3-3.1,6.9-4.7,11.8-4.7c5,0,8.9,1.6,11.7,4.9c2.8,3.3,4.2,7.9,4.2,13.9H311.4z M311.9,48.6h18.5c-0.3-2.8-1.3-4.9-2.9-6.4 c-1.6-1.5-3.7-2.2-6.4-2.2c-2.7,0-4.8,0.8-6.4,2.3C313.1,43.7,312.1,45.8,311.9,48.6z"></path> <path d="M365.7,47.5c-0.6-2.4-1.7-4.2-3.1-5.4c-1.5-1.2-3.3-1.9-5.5-1.9c-3.1,0-5.6,1-7.4,3c-1.8,2-2.7,4.8-2.7,8.4 c0,3.5,0.9,6.2,2.7,8.2c1.8,2,4.2,3,7.3,3c2.2,0,4.2-0.6,6-1.7c1.8-1.1,3.2-2.7,4.3-4.8l5.1,2.5c-1.3,3.1-3.3,5.6-6,7.3 c-2.8,1.8-5.9,2.7-9.4,2.7c-4.9,0-8.9-1.6-12-4.7c-3.1-3.1-4.6-7.3-4.6-12.4c0-5,1.5-9.1,4.4-12.3c3-3.2,6.7-4.8,11.3-4.8 c1.9,0,3.6,0.3,5.1,0.9c1.6,0.6,3,1.5,4.5,2.8v-2.9h5.2v12.1H365.7z"></path> <path d="M384,58.9c0,1.6,0.2,2.7,0.6,3.2c0.4,0.6,1.1,0.9,2,0.9c0.5,0,1-0.1,1.5-0.2c0.5-0.1,1.2-0.4,1.9-0.7v5.7 c-0.8,0.3-1.7,0.6-2.5,0.8c-0.9,0.2-1.7,0.3-2.6,0.3c-2.5,0-4.3-0.6-5.3-1.8c-1-1.2-1.5-3.6-1.5-7.2V40.7h-4.3v-5.4h4.3V31 l5.9-4.9v9.2h6.1v5.4H384V58.9z"></path> <path d="M400,62.2V40.7h-4.6v-5.4h10.2v6.4c1.1-2.5,2.5-4.3,4.1-5.4c1.6-1.1,3.7-1.6,6.3-1.6c0.4,0,0.8,0,1.2,0 c0.4,0,0.8,0,1.3,0v6.3c0,0-0.1,0-0.2,0c-1-0.1-1.7-0.1-2.2-0.1c-3.5,0-6.1,1-7.7,3c-1.6,2-2.4,5.2-2.4,9.6v8.6h5.8v5.7h-16.3 v-5.7H400z"></path> <path d="M452.9,51.7c0,5.1-1.5,9.3-4.5,12.4c-3,3.2-7,4.7-11.8,4.7c-4.8,0-8.8-1.6-11.8-4.7c-3-3.1-4.5-7.3-4.5-12.4 s1.5-9.3,4.5-12.4c3-3.1,6.9-4.7,11.8-4.7c4.9,0,8.8,1.6,11.8,4.7C451.4,42.4,452.9,46.6,452.9,51.7z M436.6,62.8 c3.1,0,5.5-1,7.2-3c1.7-2,2.6-4.7,2.6-8.2s-0.9-6.3-2.6-8.2c-1.7-2-4.1-3-7.2-3c-3,0-5.4,1-7.2,3c-1.7,2-2.6,4.7-2.6,8.2 c0,3.5,0.9,6.2,2.6,8.2C431.2,61.8,433.6,62.8,436.6,62.8z"></path> <path d="M461,62.2V40.7h-4.6v-5.4h10.2v5c2.2-1.8,4.2-3,5.9-3.8c1.8-0.8,3.6-1.2,5.3-1.2c2.8,0,4.9,0.8,6,2.4 c1.2,1.6,1.8,4.7,1.8,9.3v15.2h4.8v5.7h-10.7V49.4c0-3.9-0.3-6.3-0.9-7.3c-0.6-1-1.7-1.5-3.2-1.5c-1.4,0-2.8,0.4-4.3,1.2 c-1.4,0.8-2.9,2.1-4.6,3.8v16.6h4.8v5.7h-15.3v-5.7H461z"></path> </g> </g> </g> </svg> 